# xmcd CD database file
# Copyright (C) 1993-1998 Ti Kan
#
# Track frame offsets:
# 150
# 12225
# 35900
# 54437
# 71737
# 88475
# 103775
# 117025
# 144925
# 174350
# 190325
# 218850
#
# Disc length: 3095 seconds
# Revision: 0
# Processed by: cddbd v1.4b41PL1 Copyright (c) Steve Scherf et al.
# Submitted via: CDSpectrumPro v3.3.333
#
DISCID=ad0c150c
DTITLE=The Wayfarers - The Aussie Collection (Volume 1)
DYEAR=1900
DGENRE=
TTITLE0=Going Back Again To Yarrawonga
TTITLE1=Botany Bay
TTITLE2=The Old Bullock Dray
TTITLE3=Beautiful Queensland
TTITLE4=Along The Road To Gundagai
TTITLE5=They Call Me The Old Sundowner
TTITLE6=Waltzing Matilda (Queensland Vsn
TTITLE7=All For My Grog
TTITLE8=It's A Brown Slouch Hat
TTITLE9=Up There Cazaly
TTITLE10=Where's That Old Cobber Of Mine
TTITLE11=The Stockman's Hall Of Fame
EXTD=
EXTT0=
EXTT1=
EXTT2=
EXTT3=
EXTT4=
EXTT5=
EXTT6=
EXTT7=
EXTT8=
EXTT9=
EXTT10=
EXTT11=
PLAYORDER=
